{"title":"Witches of East End S01E03 HDTV x264 AAC E-Subs [GWC].mp4","uid":9079168,"size":150717572,"categoryP":"video","categoryS":"tv_shows","magnet":"?xt=urn:btih:a890e1d6ed5870a5ddfda31657d39a668f548e9c&amp;dn=Witches+of+East+End+S01E03+HDTV+x264+AAC+E-Subs+%5BGWC%5D.mp4&amp;tr=udp%3A%2F%2Ftracker.openbittorrent.com%3A80&amp;tr=udp%3A%2F%2Fopen.demonii.com%3A1337&amp;tr=udp%3A%2F%2Ftracker.coppersurfer.tk%3A6969&amp;tr=udp%3A%2F%2Fexodus.desync.com%3A6969","seeders":3,"leechers":0,"uploader":"canc232","files":1,"time":1382356329,"description":"Witches of East End S01E03 HDTV x264 AAC E-Subs [GWC]\n\nSCREENS : \n &lt;a href=&quot;\nhttp://s20.postimg.org/v1rgb8ikd/Witches_of_East_End_S01_E03_HDTV_480p_x264_AAC_G.jpg&quot; rel=&quot;nofollow&quot; target=&quot;_NEW&quot;&gt;\nhttp://s20.postimg.org/v1rgb8ikd/Witches_of_East_End_S01_E03_HDTV_480p_x264_AAC_G.jpg&lt;/a&gt;\n &lt;a href=&quot;\nhttp://s20.postimg.org/dzym953p9/Witches_of_East_End_S01_E03_HDTV_480p_x264_AAC_G.jpg&quot; rel=&quot;nofollow&quot; target=&quot;_NEW&quot;&gt;\nhttp://s20.postimg.org/dzym953p9/Witches_of_East_End_S01_E03_HDTV_480p_x264_AAC_G.jpg&lt;/a&gt;\n &lt;a href=&quot;\nhttp://s20.postimg.org/voqd0rfgd/Witches_of_East_End_S01_E03_HDTV_480p_x264_AAC_G.jpg&quot; rel=&quot;nofollow&quot; target=&quot;_NEW&quot;&gt;\nhttp://s20.postimg.org/voqd0rfgd/Witches_of_East_End_S01_E03_HDTV_480p_x264_AAC_G.jpg&lt;/a&gt;\n\n\nMEDIA INFO :\n\nGeneral \nFormat : MPEG-4 \nFile size : 144 MiB \nDuration : 42mn 41s \nOverall bit rate mode : Variable \nOverall bit rate : 471 Kbps \n\nVideo \nFormat : AVC \nFormat profile : &lt;a class=&quot;__cf_email__&quot; href=&quot;/cdn-cgi/l/email-protection&quot; data-cfemail=&quot;b1f9d8d6d9f1fd829f81&quot;&gt;[email&amp;#160;protected]&lt;/a&gt;&lt;script cf-hash='f9e31' type=&quot;text/javascript&quot;&gt;\n/* &lt;![CDATA[ */!function(){try{var t=&quot;currentScript&quot;in document?document.currentScript:function(){for(var t=document.getElementsByTagName(&quot;script&quot;),e=t.length;e--;)if(t[e].getAttribute(&quot;cf-hash&quot;))return t[e]}();if(t&amp;&amp;t.previousSibling){var e,r,n,i,c=t.previousSibling,a=c.getAttribute(&quot;data-cfemail&quot;);if(a){for(e=&quot;&quot;,r=parseInt(a.substr(0,2),16),n=2;a.length-n;n+=2)i=parseInt(a.substr(n,2),16)^r,e+=String.fromCharCode(i);e=document.createTextNode(e),c.parentNode.replaceChild(e,c)}}}catch(u){}}();/* ]]&gt; */&lt;/script&gt; \nFormat settings, CABAC : Yes \nFormat settings, ReFrames : 4 frames \nDuration : 42mn 40s \nBit rate : 407 Kbps \nWidth : 720 pixels \nHeight : 404 pixels \nDisplay aspect ratio : 16:9 \nFrame rate : 23.976 fps \nStream size : 124 MiB (87%) \nTitle : Witches of East End S01E03 HDTV x264 AAC E-Subs [GWC] \nWriting library : x264 core\n\nAudio \nFormat : AAC \nFormat profile : HE-AAC / LC \nDuration : 42mn 41s \nBit rate mode : Variable \nChannel(s) : 2 channels \nSampling rate : 48.0 KHz / 24.0 KHz \nStream size : 18.3 MiB (13%) \nLanguage : English \n\nText  \nFormat : Timed Text \nCodec ID : tx3g \nDuration : 42mn 18s \nStream size : 29.4 KiB (0%) \nTitle : English Subtitle by Reef \nLanguage : English","torrent":{"xt":"urn:btih:a890e1d6ed5870a5ddfda31657d39a668f548e9c","amp;dn":"Witches+of+East+End+S01E03+HDTV+x264+AAC+E-Subs+%5BGWC%5D.mp4","amp;tr":["udp%3A%2F%2Ftracker.openbittorrent.com%3A80","udp%3A%2F%2Fopen.demonii.com%3A1337","udp%3A%2F%2Ftracker.coppersurfer.tk%3A6969","udp%3A%2F%2Fexodus.desync.com%3A6969"],"infoHash":"a890e1d6ed5870a5ddfda31657d39a668f548e9c","infoHashBuffer":{"type":"Buffer","data":[168,144,225,214,237,88,112,165,221,253,163,22,87,211,154,102,143,84,142,156]},"announce":[],"urlList":[]}}